<mxfile host="app.diagrams.net" agent="Mozilla/5.0 (Windows NT 10.0; Win64; x64) AppleWebKit/537.36 (KHTML, like Gecko) Chrome/128.0.0.0 Safari/537.36" version="24.7.10">
  <diagram name="第 1 页" id="74kTUhoxKH15DXfHU7q1">
    <mxGraphModel dx="1434" dy="738" grid="0" gridSize="10" guides="1" tooltips="1" connect="1" arrows="1" fold="1" page="0" pageScale="1" pageWidth="827" pageHeight="1169" math="0" shadow="0">
      <root>
        <mxCell id="0" />
        <mxCell id="1" parent="0" />
        <mxCell id="fl-RpsJJQIUVBH7QUZgn-3" value="" style="edgeStyle=orthogonalEdgeStyle;rounded=0;orthogonalLoop=1;jettySize=auto;html=1;strokeColor=#E07A5F;fontColor=#393C56;fillColor=#F2CC8F;" edge="1" parent="1" source="fl-RpsJJQIUVBH7QUZgn-1" target="fl-RpsJJQIUVBH7QUZgn-2">
          <mxGeometry relative="1" as="geometry" />
        </mxCell>
        <mxCell id="fl-RpsJJQIUVBH7QUZgn-1" value="审批通过" style="strokeWidth=2;html=1;shape=mxgraph.flowchart.start_1;whiteSpace=wrap;labelBackgroundColor=none;fillColor=#F2CC8F;strokeColor=#E07A5F;fontColor=#393C56;" vertex="1" parent="1">
          <mxGeometry x="220" y="93" width="100" height="60" as="geometry" />
        </mxCell>
        <mxCell id="fl-RpsJJQIUVBH7QUZgn-16" value="" style="edgeStyle=orthogonalEdgeStyle;rounded=0;orthogonalLoop=1;jettySize=auto;html=1;strokeColor=#E07A5F;fontColor=#393C56;fillColor=#F2CC8F;" edge="1" parent="1" source="fl-RpsJJQIUVBH7QUZgn-2" target="fl-RpsJJQIUVBH7QUZgn-15">
          <mxGeometry relative="1" as="geometry" />
        </mxCell>
        <mxCell id="fl-RpsJJQIUVBH7QUZgn-2" value="查询限额表" style="whiteSpace=wrap;html=1;fillColor=#F2CC8F;strokeColor=#E07A5F;fontColor=#393C56;strokeWidth=2;labelBackgroundColor=none;" vertex="1" parent="1">
          <mxGeometry x="210" y="233" width="120" height="60" as="geometry" />
        </mxCell>
        <mxCell id="fl-RpsJJQIUVBH7QUZgn-7" style="edgeStyle=orthogonalEdgeStyle;rounded=0;orthogonalLoop=1;jettySize=auto;html=1;strokeColor=#E07A5F;fontColor=#393C56;fillColor=#F2CC8F;" edge="1" parent="1" source="fl-RpsJJQIUVBH7QUZgn-4" target="fl-RpsJJQIUVBH7QUZgn-6">
          <mxGeometry relative="1" as="geometry" />
        </mxCell>
        <mxCell id="fl-RpsJJQIUVBH7QUZgn-8" value="Y" style="edgeLabel;html=1;align=center;verticalAlign=middle;resizable=0;points=[];strokeColor=#E07A5F;fontColor=#393C56;fillColor=#F2CC8F;" vertex="1" connectable="0" parent="fl-RpsJJQIUVBH7QUZgn-7">
          <mxGeometry x="-0.2698" y="2" relative="1" as="geometry">
            <mxPoint as="offset" />
          </mxGeometry>
        </mxCell>
        <mxCell id="fl-RpsJJQIUVBH7QUZgn-12" value="" style="edgeStyle=orthogonalEdgeStyle;rounded=0;orthogonalLoop=1;jettySize=auto;html=1;strokeColor=#E07A5F;fontColor=#393C56;fillColor=#F2CC8F;" edge="1" parent="1" source="fl-RpsJJQIUVBH7QUZgn-4" target="fl-RpsJJQIUVBH7QUZgn-11">
          <mxGeometry relative="1" as="geometry" />
        </mxCell>
        <mxCell id="fl-RpsJJQIUVBH7QUZgn-24" value="N" style="edgeLabel;html=1;align=center;verticalAlign=middle;resizable=0;points=[];strokeColor=#E07A5F;fontColor=#393C56;fillColor=#F2CC8F;" vertex="1" connectable="0" parent="fl-RpsJJQIUVBH7QUZgn-12">
          <mxGeometry x="0.1053" y="-1" relative="1" as="geometry">
            <mxPoint as="offset" />
          </mxGeometry>
        </mxCell>
        <mxCell id="fl-RpsJJQIUVBH7QUZgn-4" value="公司行为记录不存在" style="rhombus;whiteSpace=wrap;html=1;fillColor=#F2CC8F;strokeColor=#E07A5F;fontColor=#393C56;strokeWidth=2;labelBackgroundColor=none;" vertex="1" parent="1">
          <mxGeometry x="230" y="789" width="80" height="80" as="geometry" />
        </mxCell>
        <mxCell id="fl-RpsJJQIUVBH7QUZgn-6" value="抛异常" style="strokeWidth=2;html=1;shape=mxgraph.flowchart.terminator;whiteSpace=wrap;strokeColor=#E07A5F;fontColor=#393C56;fillColor=#F2CC8F;" vertex="1" parent="1">
          <mxGeometry x="493" y="799" width="100" height="60" as="geometry" />
        </mxCell>
        <mxCell id="fl-RpsJJQIUVBH7QUZgn-14" value="" style="edgeStyle=orthogonalEdgeStyle;rounded=0;orthogonalLoop=1;jettySize=auto;html=1;strokeColor=#E07A5F;fontColor=#393C56;fillColor=#F2CC8F;" edge="1" parent="1" source="fl-RpsJJQIUVBH7QUZgn-11" target="fl-RpsJJQIUVBH7QUZgn-13">
          <mxGeometry relative="1" as="geometry" />
        </mxCell>
        <mxCell id="fl-RpsJJQIUVBH7QUZgn-34" value="Y" style="edgeLabel;html=1;align=center;verticalAlign=middle;resizable=0;points=[];strokeColor=#E07A5F;fontColor=#393C56;fillColor=#F2CC8F;" vertex="1" connectable="0" parent="fl-RpsJJQIUVBH7QUZgn-14">
          <mxGeometry x="0.2584" relative="1" as="geometry">
            <mxPoint as="offset" />
          </mxGeometry>
        </mxCell>
        <mxCell id="fl-RpsJJQIUVBH7QUZgn-33" style="edgeStyle=orthogonalEdgeStyle;rounded=0;orthogonalLoop=1;jettySize=auto;html=1;exitX=1;exitY=0.5;exitDx=0;exitDy=0;entryX=1;entryY=0.5;entryDx=0;entryDy=0;strokeColor=#E07A5F;fontColor=#393C56;fillColor=#F2CC8F;" edge="1" parent="1">
          <mxGeometry relative="1" as="geometry">
            <mxPoint x="296" y="988" as="sourcePoint" />
            <mxPoint x="316" y="1707" as="targetPoint" />
            <Array as="points">
              <mxPoint x="457" y="988" />
              <mxPoint x="457" y="1707" />
            </Array>
          </mxGeometry>
        </mxCell>
        <mxCell id="fl-RpsJJQIUVBH7QUZgn-35" value="N" style="edgeLabel;html=1;align=center;verticalAlign=middle;resizable=0;points=[];strokeColor=#E07A5F;fontColor=#393C56;fillColor=#F2CC8F;" vertex="1" connectable="0" parent="fl-RpsJJQIUVBH7QUZgn-33">
          <mxGeometry x="-0.2674" y="1" relative="1" as="geometry">
            <mxPoint as="offset" />
          </mxGeometry>
        </mxCell>
        <mxCell id="fl-RpsJJQIUVBH7QUZgn-11" value="记录关联的上一个配置id不为空" style="rhombus;whiteSpace=wrap;html=1;fillColor=#F2CC8F;strokeColor=#E07A5F;fontColor=#393C56;strokeWidth=2;labelBackgroundColor=none;" vertex="1" parent="1">
          <mxGeometry x="230" y="945" width="80" height="80" as="geometry" />
        </mxCell>
        <mxCell id="fl-RpsJJQIUVBH7QUZgn-26" value="" style="edgeStyle=orthogonalEdgeStyle;rounded=0;orthogonalLoop=1;jettySize=auto;html=1;strokeColor=#E07A5F;fontColor=#393C56;fillColor=#F2CC8F;" edge="1" parent="1" source="fl-RpsJJQIUVBH7QUZgn-13" target="fl-RpsJJQIUVBH7QUZgn-25">
          <mxGeometry relative="1" as="geometry" />
        </mxCell>
        <mxCell id="fl-RpsJJQIUVBH7QUZgn-13" value="根据关联id查询公司行为表记录" style="whiteSpace=wrap;html=1;fillColor=#F2CC8F;strokeColor=#E07A5F;fontColor=#393C56;strokeWidth=2;labelBackgroundColor=none;" vertex="1" parent="1">
          <mxGeometry x="210" y="1114" width="120" height="60" as="geometry" />
        </mxCell>
        <mxCell id="fl-RpsJJQIUVBH7QUZgn-18" value="" style="edgeStyle=orthogonalEdgeStyle;rounded=0;orthogonalLoop=1;jettySize=auto;html=1;strokeColor=#E07A5F;fontColor=#393C56;fillColor=#F2CC8F;" edge="1" parent="1" source="fl-RpsJJQIUVBH7QUZgn-15" target="fl-RpsJJQIUVBH7QUZgn-17">
          <mxGeometry relative="1" as="geometry" />
        </mxCell>
        <mxCell id="fl-RpsJJQIUVBH7QUZgn-15" value="查询出限额修改前记录列表" style="whiteSpace=wrap;html=1;fillColor=#F2CC8F;strokeColor=#E07A5F;fontColor=#393C56;strokeWidth=2;labelBackgroundColor=none;" vertex="1" parent="1">
          <mxGeometry x="210" y="373" width="120" height="60" as="geometry" />
        </mxCell>
        <mxCell id="fl-RpsJJQIUVBH7QUZgn-20" value="" style="edgeStyle=orthogonalEdgeStyle;rounded=0;orthogonalLoop=1;jettySize=auto;html=1;strokeColor=#E07A5F;fontColor=#393C56;fillColor=#F2CC8F;" edge="1" parent="1" source="fl-RpsJJQIUVBH7QUZgn-17" target="fl-RpsJJQIUVBH7QUZgn-19">
          <mxGeometry relative="1" as="geometry" />
        </mxCell>
        <mxCell id="fl-RpsJJQIUVBH7QUZgn-17" value="循环列表，更新审批状态为已完成" style="whiteSpace=wrap;html=1;fillColor=#F2CC8F;strokeColor=#E07A5F;fontColor=#393C56;strokeWidth=2;labelBackgroundColor=none;" vertex="1" parent="1">
          <mxGeometry x="210" y="513" width="120" height="60" as="geometry" />
        </mxCell>
        <mxCell id="fl-RpsJJQIUVBH7QUZgn-23" style="edgeStyle=orthogonalEdgeStyle;rounded=0;orthogonalLoop=1;jettySize=auto;html=1;exitX=0.5;exitY=1;exitDx=0;exitDy=0;strokeColor=#E07A5F;fontColor=#393C56;fillColor=#F2CC8F;" edge="1" parent="1" source="fl-RpsJJQIUVBH7QUZgn-19" target="fl-RpsJJQIUVBH7QUZgn-4">
          <mxGeometry relative="1" as="geometry" />
        </mxCell>
        <mxCell id="fl-RpsJJQIUVBH7QUZgn-19" value="查询公司行为记录" style="whiteSpace=wrap;html=1;fillColor=#F2CC8F;strokeColor=#E07A5F;fontColor=#393C56;strokeWidth=2;labelBackgroundColor=none;" vertex="1" parent="1">
          <mxGeometry x="210" y="653" width="120" height="60" as="geometry" />
        </mxCell>
        <mxCell id="fl-RpsJJQIUVBH7QUZgn-28" value="" style="edgeStyle=orthogonalEdgeStyle;rounded=0;orthogonalLoop=1;jettySize=auto;html=1;strokeColor=#E07A5F;fontColor=#393C56;fillColor=#F2CC8F;" edge="1" parent="1" source="fl-RpsJJQIUVBH7QUZgn-25" target="fl-RpsJJQIUVBH7QUZgn-27">
          <mxGeometry relative="1" as="geometry" />
        </mxCell>
        <mxCell id="fl-RpsJJQIUVBH7QUZgn-25" value="更新记录状态为9" style="whiteSpace=wrap;html=1;fillColor=#F2CC8F;strokeColor=#E07A5F;fontColor=#393C56;strokeWidth=2;labelBackgroundColor=none;" vertex="1" parent="1">
          <mxGeometry x="210" y="1254" width="120" height="60" as="geometry" />
        </mxCell>
        <mxCell id="fl-RpsJJQIUVBH7QUZgn-30" value="" style="edgeStyle=orthogonalEdgeStyle;rounded=0;orthogonalLoop=1;jettySize=auto;html=1;strokeColor=#E07A5F;fontColor=#393C56;fillColor=#F2CC8F;" edge="1" parent="1" source="fl-RpsJJQIUVBH7QUZgn-27" target="fl-RpsJJQIUVBH7QUZgn-29">
          <mxGeometry relative="1" as="geometry" />
        </mxCell>
        <mxCell id="fl-RpsJJQIUVBH7QUZgn-27" value="根据关联id查询限额表" style="whiteSpace=wrap;html=1;fillColor=#F2CC8F;strokeColor=#E07A5F;fontColor=#393C56;strokeWidth=2;labelBackgroundColor=none;" vertex="1" parent="1">
          <mxGeometry x="210" y="1394" width="120" height="60" as="geometry" />
        </mxCell>
        <mxCell id="fl-RpsJJQIUVBH7QUZgn-32" value="" style="edgeStyle=orthogonalEdgeStyle;rounded=0;orthogonalLoop=1;jettySize=auto;html=1;strokeColor=#E07A5F;fontColor=#393C56;fillColor=#F2CC8F;" edge="1" parent="1" source="fl-RpsJJQIUVBH7QUZgn-29" target="fl-RpsJJQIUVBH7QUZgn-31">
          <mxGeometry relative="1" as="geometry" />
        </mxCell>
        <mxCell id="fl-RpsJJQIUVBH7QUZgn-29" value="更新记录状态为9" style="whiteSpace=wrap;html=1;fillColor=#F2CC8F;strokeColor=#E07A5F;fontColor=#393C56;strokeWidth=2;labelBackgroundColor=none;" vertex="1" parent="1">
          <mxGeometry x="210" y="1534" width="120" height="60" as="geometry" />
        </mxCell>
        <mxCell id="fl-RpsJJQIUVBH7QUZgn-37" value="" style="edgeStyle=orthogonalEdgeStyle;rounded=0;orthogonalLoop=1;jettySize=auto;html=1;strokeColor=#E07A5F;fontColor=#393C56;fillColor=#F2CC8F;" edge="1" parent="1" source="fl-RpsJJQIUVBH7QUZgn-31" target="fl-RpsJJQIUVBH7QUZgn-36">
          <mxGeometry relative="1" as="geometry" />
        </mxCell>
        <mxCell id="fl-RpsJJQIUVBH7QUZgn-31" value="更新公司行为记录状态为0，审批状态为0" style="whiteSpace=wrap;html=1;fillColor=#F2CC8F;strokeColor=#E07A5F;fontColor=#393C56;strokeWidth=2;labelBackgroundColor=none;" vertex="1" parent="1">
          <mxGeometry x="210" y="1674" width="120" height="60" as="geometry" />
        </mxCell>
        <mxCell id="fl-RpsJJQIUVBH7QUZgn-41" value="" style="edgeStyle=orthogonalEdgeStyle;rounded=0;orthogonalLoop=1;jettySize=auto;html=1;strokeColor=#E07A5F;fontColor=#393C56;fillColor=#F2CC8F;" edge="1" parent="1" source="fl-RpsJJQIUVBH7QUZgn-36" target="fl-RpsJJQIUVBH7QUZgn-40">
          <mxGeometry relative="1" as="geometry" />
        </mxCell>
        <mxCell id="fl-RpsJJQIUVBH7QUZgn-36" value="查询限额表" style="whiteSpace=wrap;html=1;fillColor=#F2CC8F;strokeColor=#E07A5F;fontColor=#393C56;strokeWidth=2;labelBackgroundColor=none;" vertex="1" parent="1">
          <mxGeometry x="210" y="1814" width="120" height="60" as="geometry" />
        </mxCell>
        <mxCell id="fl-RpsJJQIUVBH7QUZgn-43" value="" style="edgeStyle=orthogonalEdgeStyle;rounded=0;orthogonalLoop=1;jettySize=auto;html=1;strokeColor=#E07A5F;fontColor=#393C56;fillColor=#F2CC8F;" edge="1" parent="1" source="fl-RpsJJQIUVBH7QUZgn-40" target="fl-RpsJJQIUVBH7QUZgn-42">
          <mxGeometry relative="1" as="geometry" />
        </mxCell>
        <mxCell id="fl-RpsJJQIUVBH7QUZgn-46" value="Y" style="edgeLabel;html=1;align=center;verticalAlign=middle;resizable=0;points=[];strokeColor=#E07A5F;fontColor=#393C56;fillColor=#F2CC8F;" vertex="1" connectable="0" parent="fl-RpsJJQIUVBH7QUZgn-43">
          <mxGeometry x="-0.0444" y="2" relative="1" as="geometry">
            <mxPoint as="offset" />
          </mxGeometry>
        </mxCell>
        <mxCell id="fl-RpsJJQIUVBH7QUZgn-48" value="" style="edgeStyle=orthogonalEdgeStyle;rounded=0;orthogonalLoop=1;jettySize=auto;html=1;strokeColor=#E07A5F;fontColor=#393C56;fillColor=#F2CC8F;" edge="1" parent="1" source="fl-RpsJJQIUVBH7QUZgn-40" target="fl-RpsJJQIUVBH7QUZgn-47">
          <mxGeometry relative="1" as="geometry" />
        </mxCell>
        <mxCell id="fl-RpsJJQIUVBH7QUZgn-57" value="N" style="edgeLabel;html=1;align=center;verticalAlign=middle;resizable=0;points=[];strokeColor=#E07A5F;fontColor=#393C56;fillColor=#F2CC8F;" vertex="1" connectable="0" parent="fl-RpsJJQIUVBH7QUZgn-48">
          <mxGeometry x="0.0039" y="4" relative="1" as="geometry">
            <mxPoint y="1" as="offset" />
          </mxGeometry>
        </mxCell>
        <mxCell id="fl-RpsJJQIUVBH7QUZgn-40" value="限额记录的账户为9999999999" style="rhombus;whiteSpace=wrap;html=1;fillColor=#F2CC8F;strokeColor=#E07A5F;fontColor=#393C56;strokeWidth=2;labelBackgroundColor=none;" vertex="1" parent="1">
          <mxGeometry x="230" y="1944" width="80" height="80" as="geometry" />
        </mxCell>
        <mxCell id="fl-RpsJJQIUVBH7QUZgn-45" value="" style="edgeStyle=orthogonalEdgeStyle;rounded=0;orthogonalLoop=1;jettySize=auto;html=1;strokeColor=#E07A5F;fontColor=#393C56;fillColor=#F2CC8F;" edge="1" parent="1" source="fl-RpsJJQIUVBH7QUZgn-42" target="fl-RpsJJQIUVBH7QUZgn-44">
          <mxGeometry relative="1" as="geometry" />
        </mxCell>
        <mxCell id="fl-RpsJJQIUVBH7QUZgn-42" value="查询限额记录表获取列表记录" style="whiteSpace=wrap;html=1;fillColor=#F2CC8F;strokeColor=#E07A5F;fontColor=#393C56;strokeWidth=2;labelBackgroundColor=none;" vertex="1" parent="1">
          <mxGeometry x="210" y="2114" width="120" height="60" as="geometry" />
        </mxCell>
        <mxCell id="fl-RpsJJQIUVBH7QUZgn-50" value="" style="edgeStyle=orthogonalEdgeStyle;rounded=0;orthogonalLoop=1;jettySize=auto;html=1;strokeColor=#E07A5F;fontColor=#393C56;fillColor=#F2CC8F;" edge="1" parent="1" source="fl-RpsJJQIUVBH7QUZgn-44" target="fl-RpsJJQIUVBH7QUZgn-49">
          <mxGeometry relative="1" as="geometry" />
        </mxCell>
        <mxCell id="fl-RpsJJQIUVBH7QUZgn-44" value="获取对应账户为ALL的记录，更新status=9，operation=9，根据prefId查询公司行为表，更新status=9" style="whiteSpace=wrap;html=1;fillColor=#F2CC8F;strokeColor=#E07A5F;fontColor=#393C56;strokeWidth=2;labelBackgroundColor=none;" vertex="1" parent="1">
          <mxGeometry x="197.5" y="2256" width="145" height="77" as="geometry" />
        </mxCell>
        <mxCell id="fl-RpsJJQIUVBH7QUZgn-51" style="edgeStyle=orthogonalEdgeStyle;rounded=0;orthogonalLoop=1;jettySize=auto;html=1;exitX=0.5;exitY=1;exitDx=0;exitDy=0;entryX=1;entryY=0.5;entryDx=0;entryDy=0;strokeColor=#E07A5F;fontColor=#393C56;fillColor=#F2CC8F;" edge="1" parent="1" source="fl-RpsJJQIUVBH7QUZgn-47" target="fl-RpsJJQIUVBH7QUZgn-49">
          <mxGeometry relative="1" as="geometry" />
        </mxCell>
        <mxCell id="fl-RpsJJQIUVBH7QUZgn-47" value="&lt;div&gt;根据公司id，status=0,account=&#39;9999999999&#39;查询限额表，记录存在，则更新status=9，operation=9，根据prefId查询公司行为表，更新status=9&lt;/div&gt;&lt;div&gt;9.更新限额记录status=0&lt;/div&gt;" style="whiteSpace=wrap;html=1;fillColor=#F2CC8F;strokeColor=#E07A5F;fontColor=#393C56;strokeWidth=2;labelBackgroundColor=none;" vertex="1" parent="1">
          <mxGeometry x="438" y="1954" width="316" height="59" as="geometry" />
        </mxCell>
        <mxCell id="fl-RpsJJQIUVBH7QUZgn-54" value="" style="edgeStyle=orthogonalEdgeStyle;rounded=0;orthogonalLoop=1;jettySize=auto;html=1;strokeColor=#E07A5F;fontColor=#393C56;fillColor=#F2CC8F;" edge="1" parent="1" source="fl-RpsJJQIUVBH7QUZgn-49" target="fl-RpsJJQIUVBH7QUZgn-53">
          <mxGeometry relative="1" as="geometry" />
        </mxCell>
        <mxCell id="fl-RpsJJQIUVBH7QUZgn-49" value="数据上报" style="whiteSpace=wrap;html=1;fillColor=#F2CC8F;strokeColor=#E07A5F;fontColor=#393C56;strokeWidth=2;labelBackgroundColor=none;" vertex="1" parent="1">
          <mxGeometry x="197.5" y="2413" width="145" height="77" as="geometry" />
        </mxCell>
        <mxCell id="fl-RpsJJQIUVBH7QUZgn-56" style="edgeStyle=orthogonalEdgeStyle;rounded=0;orthogonalLoop=1;jettySize=auto;html=1;exitX=0.5;exitY=1;exitDx=0;exitDy=0;strokeColor=#E07A5F;fontColor=#393C56;fillColor=#F2CC8F;" edge="1" parent="1" source="fl-RpsJJQIUVBH7QUZgn-53" target="fl-RpsJJQIUVBH7QUZgn-55">
          <mxGeometry relative="1" as="geometry" />
        </mxCell>
        <mxCell id="fl-RpsJJQIUVBH7QUZgn-53" value="发送邮箱短信通知" style="whiteSpace=wrap;html=1;fillColor=#F2CC8F;strokeColor=#E07A5F;fontColor=#393C56;strokeWidth=2;labelBackgroundColor=none;" vertex="1" parent="1">
          <mxGeometry x="210" y="2578.5" width="120" height="60" as="geometry" />
        </mxCell>
        <mxCell id="fl-RpsJJQIUVBH7QUZgn-55" value="结束" style="strokeWidth=2;html=1;shape=mxgraph.flowchart.terminator;whiteSpace=wrap;strokeColor=#E07A5F;fontColor=#393C56;fillColor=#F2CC8F;" vertex="1" parent="1">
          <mxGeometry x="220" y="2727" width="100" height="60" as="geometry" />
        </mxCell>
      </root>
    </mxGraphModel>
  </diagram>
</mxfile>
